<svg id="Calque_1" data-name="Calque 1" xmlns="http://www.w3.org/2000/svg" viewBox="0 0 57.49 19.29"><defs><style>.cls-1,.cls-2{fill:#fff;}.cls-2{stroke:#fff;stroke-miterlimit:10;stroke-width:0.1px;}</style></defs><g id="logoDesktop"><path class="cls-1" d="M15.39,8.91c.09.16,0,.28-.21.7s-.7,1.14-1,1.74a7.34,7.34,0,0,0-.65,1.48c-.12.42-.18.74,0,.94.33.39,1.33,0,1.4.16s-.13.19-.26.29a1.35,1.35,0,0,1-.78.3,1.28,1.28,0,0,1-1-.46,1.62,1.62,0,0,1-.21-1.23,8.54,8.54,0,0,1,.57-1.94,11.1,11.1,0,0,1,.94-1.84c.28-.43.48-.57.69-.54A.8.8,0,0,1,15.39,8.91Zm1-1.71a3,3,0,0,1-.56,1.09c-.19.23-.28.2-.32.11s0-.27-.09-.49a7.15,7.15,0,0,1-.25-.78.68.68,0,0,1,.21-.67.71.71,0,0,1,.73,0A.65.65,0,0,1,16.42,7.2Z"/><path class="cls-1" d="M21.17,9.82c0,.28-.13.51-.5,1.11s-1,1.6-1.3,2.2-.23.84-.1.93a.6.6,0,0,0,.52,0c.18-.06.31-.13.37-.1s0,.19-.2.34a1.1,1.1,0,0,1-1,.15c-.34-.16-.57-.65-.4-1.37a9.43,9.43,0,0,1,1.11-2.25,4.41,4.41,0,0,0,.56-1.06c0-.14-.15-.11-.63.31a23.5,23.5,0,0,0-1.84,1.87,7.85,7.85,0,0,0-1,1.34c-.13.25-.09.3-.21.45a1.4,1.4,0,0,1-.63.42c-.21,0-.35-.12-.33-.52a6.23,6.23,0,0,1,.59-1.94,19.8,19.8,0,0,1,1.42-2.61c.39-.58.56-.61.73-.55a.52.52,0,0,1,.35.34c0,.16-.05.33-.49,1s-1.23,1.79-1.6,2.38-.31.64.22.08a32.86,32.86,0,0,1,2.3-2.38c.78-.67,1.35-.85,1.68-.77A.58.58,0,0,1,21.17,9.82Z"/><path class="cls-1" d="M26.1,10.47a2.48,2.48,0,0,1-1.2,1,4.73,4.73,0,0,1-1.44.24H23.1A4.64,4.64,0,0,0,22.74,13a1,1,0,0,0,1.62,1,7.09,7.09,0,0,0,.95-.78c.2-.18.24-.2.12,0a4.46,4.46,0,0,1-.75,1,2.23,2.23,0,0,1-1.24.64,1.65,1.65,0,0,1-1.24-.4,1.88,1.88,0,0,1-.68-1.35A4.18,4.18,0,0,1,22.05,11a6.69,6.69,0,0,1,1.61-2.12,2.49,2.49,0,0,1,1.85-.66,1.11,1.11,0,0,1,.9.93A1.82,1.82,0,0,1,26.1,10.47Zm-.43-1.4c-.05-.24-.23-.32-.6-.06a5.75,5.75,0,0,0-1.44,1.63,6.37,6.37,0,0,0-.45.86c.19,0,.47-.06.75-.12a2.21,2.21,0,0,0,.92-.39,2.34,2.34,0,0,0,.64-.91A2.14,2.14,0,0,0,25.67,9.07Z"/><path class="cls-1" d="M31.61,6.49a1.25,1.25,0,0,1-.11.41,1.25,1.25,0,0,1-.32.5,1.33,1.33,0,0,1-.89.3h-.8c-.3.56-.62,1.17-.89,1.75l-.18.39a7.7,7.7,0,0,0-.79,2.73c0,.68.33.93.7,1a2,2,0,0,0,1-.16c.25-.1.34-.17.2,0a3,3,0,0,1-.92.86,1,1,0,0,1-1.24-.17A2.43,2.43,0,0,1,26.93,12a12.34,12.34,0,0,1,.43-1.85l.14-.42c.19-.59.42-1.19.64-1.72.05-.12.09-.23.14-.34A4.08,4.08,0,0,0,27,7.74a2,2,0,0,0-.73.4c-.15.11-.2.14-.19,0a1.46,1.46,0,0,1,.18-.52.93.93,0,0,1,.45-.4,2.15,2.15,0,0,1,1-.17l.8,0c.38-.82.72-1.43.93-1.79s.36-.47.56-.45A2.49,2.49,0,0,1,30.7,5c.16.09.15.21-.28,1l-.61,1.1a3.71,3.71,0,0,0,1.13-.2,1.32,1.32,0,0,0,.53-.44C31.56,6.39,31.61,6.41,31.61,6.49Z"/><path class="cls-1" d="M36.09,10.49a2.31,2.31,0,0,1-.67.56,2,2,0,0,1-1,.2l-.12.33a6.54,6.54,0,0,1-1.14,1.9,2.56,2.56,0,0,1-1.46.87,1.26,1.26,0,0,1-1.25-.53A2.54,2.54,0,0,1,30.29,12a6.54,6.54,0,0,1,.91-2,3.71,3.71,0,0,1,.91-1,.34.34,0,0,1,.46,0c.12.08.27.17.31.32l0,0a2.74,2.74,0,0,0,0,.28,5.48,5.48,0,0,1-.44.69,7.9,7.9,0,0,0-1.06,1.77,2.18,2.18,0,0,0,0,1.65c.18.33.56.3.94.07a3.69,3.69,0,0,0,1.09-1.2A6.71,6.71,0,0,0,34,11.18a1.47,1.47,0,0,1-.82-.53,1.58,1.58,0,0,1-.32-1,.56.56,0,0,0,.07-.25V9.31a.94.94,0,0,1,.89-.68c.37,0,.7.46.8,1a2.94,2.94,0,0,1-.06,1.13h0a5,5,0,0,0,1.27-.23C36.11,10.44,36.18,10.38,36.09,10.49Zm-1.93-.86a.78.78,0,0,0-.24-.54A.41.41,0,0,0,33.48,9a.62.62,0,0,0-.34.55,1.23,1.23,0,0,0,.4.85,1.17,1.17,0,0,0,.55.29A3.09,3.09,0,0,0,34.16,9.63Z"/><path class="cls-1" d="M40.59,10.7a7.73,7.73,0,0,1-.92,1.87,4.43,4.43,0,0,1-1.17,1.27,1.32,1.32,0,0,1-1.13.22,1.58,1.58,0,0,1-.66-.55c-.09-.13,0-.12.24-.18a2.86,2.86,0,0,0,1.26-.64A5.32,5.32,0,0,0,39.3,11a7.14,7.14,0,0,0,.51-1.41c.06-.31,0-.41-.3-.19A11.73,11.73,0,0,0,38,10.91a19.3,19.3,0,0,0-1.77,2.41c-.57.91-1.08,1.91-1.45,2.63a15.17,15.17,0,0,0-.73,1.53c-.13.37-.17.68-.22.78s-.11,0-.2-.11-.2-.28-.26-.36-.07-.1.6-1.73,2-4.88,2.84-6.55,1.09-1.75,1.33-1.74.44.14.46.26-.12.23-.6,1-1.29,2.29-1.69,3.06-.41.79-.05.3A27.27,27.27,0,0,1,38,10.17a4.53,4.53,0,0,1,1.69-1.31.64.64,0,0,1,.88.34A2.36,2.36,0,0,1,40.59,10.7Z"/><path class="cls-1" d="M43.57,8.91c.08.16,0,.28-.21.7s-.71,1.14-1,1.74a7.34,7.34,0,0,0-.65,1.48,1.37,1.37,0,0,0,0,.94.64.64,0,0,0,.52.4.76.76,0,0,0,.53-.22c.12-.1.14-.19.2-.19a.21.21,0,0,1,.15.17c0,.08-.08.16-.26.29a1.35,1.35,0,0,1-.78.3,1.3,1.3,0,0,1-1-.46,1.62,1.62,0,0,1-.21-1.23,9.09,9.09,0,0,1,.57-1.94,11.93,11.93,0,0,1,.94-1.84c.28-.43.48-.57.69-.54A.81.81,0,0,1,43.57,8.91Zm1-1.71A3,3,0,0,1,44,8.29c-.19.23-.28.2-.32.11s0-.27-.09-.49a7.15,7.15,0,0,1-.25-.78.68.68,0,0,1,.21-.67.72.72,0,0,1,.74,0A.66.66,0,0,1,44.59,7.2Z"/><path class="cls-1" d="M49.3,9.53c0,.17-.12.22-.19.16s-.12-.23-.3-.33a1.25,1.25,0,0,0-.88,0,3.6,3.6,0,0,0-1.29.74,5.08,5.08,0,0,0-1.15,1.42A4.37,4.37,0,0,0,44.93,13c0,.37.12.5.38.42a3.42,3.42,0,0,0,1.08-.72c.42-.38.88-.85,1.21-1.15s.52-.41.7-.4a.45.45,0,0,1,.4.3c0,.16,0,.35-.23.67a4.47,4.47,0,0,0-.55,1.12.59.59,0,0,0,.24.66.49.49,0,0,0,.44,0l.21,0c.41-.12,7.77-1.23,7.79-1.12s-8.17,1.51-8.39,1.56a.6.6,0,0,1-.29,0,.9.9,0,0,1-.21-.08.93.93,0,0,1-.45-.54,2.35,2.35,0,0,1,0-.87c0-.22.05-.27-.06-.17s-.38.36-.76.66a7.72,7.72,0,0,1-1.28.81.83.83,0,0,1-.81,0,1,1,0,0,1-.52-.73,2.77,2.77,0,0,1,.2-1.61,7.38,7.38,0,0,1,1.23-1.91,6,6,0,0,1,1.47-1.3,2.17,2.17,0,0,1,1.36-.27,1.63,1.63,0,0,1,1,.48A1,1,0,0,1,49.3,9.53Z"/><path class="cls-1" d="M16.85,4.42a2.59,2.59,0,0,1-.38.89c-.13.19-.23.28-.19,0a4.07,4.07,0,0,0,.1-1.39,1.77,1.77,0,0,0-.9-1.17A2,2,0,0,0,14,2.63a7.48,7.48,0,0,0-2.4,1.09A9.5,9.5,0,0,0,9.11,6.21,17.21,17.21,0,0,0,7.28,9.78,12.86,12.86,0,0,0,6.47,13a5.56,5.56,0,0,0,.28,2.57A2.25,2.25,0,0,0,8.24,17a3.49,3.49,0,0,0,2.27-.39,6.84,6.84,0,0,0,1.34-1.06l.06-.05c.15-.1.22-.09.21,0a.33.33,0,0,1,0,.14,3.11,3.11,0,0,1-.79,1,4.93,4.93,0,0,1-1.54.9,5,5,0,0,1-1.88.31,2.18,2.18,0,0,1-1.48-.55,3.68,3.68,0,0,1-1-1.82,9.43,9.43,0,0,1-.28-3.17,11,11,0,0,1,1-3.45C7.42,6,8.77,5.2,8.49,4.72,7.87,3.65,1.25,7,1,6.52S9.56,2.17,13.34,1.35a3.22,3.22,0,0,1,2.72.3A2.6,2.6,0,0,1,16.86,3,3.31,3.31,0,0,1,16.85,4.42Z"/><path class="cls-2" d="M32.83,6c-.06,0,.08.55,0,1.37,0,.65-.17,1.19-.08,1.21s.12-.29.39-.41.6.1.68,0-.23-.4-.49-.82A8.85,8.85,0,0,1,32.83,6Z"/><path class="cls-2" d="M36,7s-.19,1.22-.88,1.44c-.18.05-.39,0-.43.16s.18.27.26.6a.94.94,0,0,1,0,.44h0a5.76,5.76,0,0,0,.58-.92A3.7,3.7,0,0,0,36,7Z"/></g></svg>