<svg id="Calque_1" data-name="Calque 1" xmlns="http://www.w3.org/2000/svg" viewBox="0 0 33.17 26.45"><defs><style>.cls-1{fill:#fff;}</style></defs><path class="cls-1" d="M24.54,8.54a3.15,3.15,0,0,1-.43,1c-.15.22-.27.31-.23,0A4.57,4.57,0,0,0,24,8a2,2,0,0,0-1-1.32,2.29,2.29,0,0,0-1.73-.14,8,8,0,0,0-2.72,1.23,10.79,10.79,0,0,0-2.77,2.82,19.84,19.84,0,0,0-2.07,4,14.35,14.35,0,0,0-.92,3.65,6.29,6.29,0,0,0,.31,2.91,2.56,2.56,0,0,0,1.7,1.63,4,4,0,0,0,2.57-.44,7.21,7.21,0,0,0,1.51-1.2l.08-.06c.16-.11.24-.1.24,0a.71.71,0,0,1-.05.16,3.52,3.52,0,0,1-.9,1.11,5.46,5.46,0,0,1-1.74,1,5.78,5.78,0,0,1-2.13.36,2.55,2.55,0,0,1-1.68-.62,4.17,4.17,0,0,1-1.09-2.07,10.81,10.81,0,0,1-.32-3.59,12.71,12.71,0,0,1,1.17-3.91c1.41-3.23,2.94-4.14,2.62-4.69-.71-1.21-8.21,2.58-8.49,2s9.7-4.94,14-5.87a3.68,3.68,0,0,1,3.08.34,3,3,0,0,1,.91,1.51A3.88,3.88,0,0,1,24.54,8.54Z"/></svg>